<svg width="48" height="48" viewBox="0 0 48 48" fill="none" xmlns="http://www.w3.org/2000/svg">
<g clip-path="url(#clip0_1_42)">
<path d="M19.6406 2.7375C18.3281 3.19688 17.4469 4.92188 17.4375 7.0125C17.4375 9.45938 18.6563 11.3438 20.25 11.3438C23.0906 11.3438 24.15 5.53125 21.7125 3.30938C21.0281 2.68125 20.3438 2.49375 19.6406 2.7375ZM20.775 4.45313C21.3094 5.025 21.5063 5.69063 21.5156 6.98438C21.5156 8.29688 21.3656 8.85 20.85 9.45938C20.4094 9.975 20.1094 9.975 19.6594 9.47813C19.1438 8.90625 18.9844 8.30625 18.9844 6.98438C18.9938 6.0375 19.0313 5.775 19.2094 5.31563C19.4531 4.6875 19.95 4.125 20.25 4.125C20.3719 4.125 20.5969 4.26563 20.775 4.45313Z" fill="black"/>
<path d="M27.0375 2.775C25.8281 3.20625 24.9469 4.99688 24.9375 7.0125C24.9375 9.45938 26.1563 11.3438 27.75 11.3438C30.5438 11.3438 31.6313 5.7 29.2875 3.35625C28.6125 2.68125 27.8625 2.48438 27.0375 2.775ZM28.275 4.45313C28.8094 5.025 29.0063 5.69063 29.0156 6.98438C29.0156 8.29688 28.8656 8.85 28.35 9.45938C27.9 9.98438 27.6 9.98438 27.15 9.45938C26.6344 8.85 26.4844 8.29688 26.4844 6.98438C26.4938 6.0375 26.5313 5.775 26.7094 5.31563C26.9531 4.6875 27.45 4.125 27.75 4.125C27.8719 4.125 28.0969 4.26563 28.275 4.45313Z" fill="black"/>
<path d="M14.2969 4.04997C13.8 4.55622 13.5094 5.3156 13.425 6.3281C13.2 8.97185 14.1562 10.8656 15.5344 10.4812C17.3531 9.98435 17.6062 4.96872 15.8719 3.82497C15.7031 3.72185 15.4406 3.65622 15.15 3.65622C14.7375 3.65622 14.6531 3.69372 14.2969 4.04997ZM15.4594 6.13122C15.6 6.87185 15.5906 7.51872 15.4312 8.18435C15.2812 8.8406 15.2344 8.88747 15.0937 8.6156C14.8312 8.13747 14.8312 6.2531 15.0937 5.5781C15.225 5.22185 15.3187 5.3531 15.4594 6.13122Z" fill="black"/>
<path d="M32.0812 3.85307C30.7312 4.72495 30.5625 8.73745 31.8094 10.0687C32.9437 11.2687 34.3875 10.0968 34.575 7.82807C34.725 6.11245 34.4062 4.77182 33.7031 4.04995C33.3469 3.6937 33.2625 3.6562 32.85 3.6562C32.55 3.6562 32.2875 3.72182 32.0812 3.85307ZM32.9906 5.8687C33.2062 6.71245 33.0937 8.59682 32.8125 8.76557C32.5312 8.9437 32.3719 6.57182 32.6156 5.73745C32.7469 5.25932 32.85 5.28745 32.9906 5.8687Z" fill="black"/>
<path d="M10.6406 5.85934C10.1531 6.02809 9.61874 6.63746 9.40311 7.24684C9.18749 7.89371 9.18749 9.15934 9.40311 9.80621C9.75936 10.8281 10.6406 11.4656 11.4187 11.2593C12.3281 11.0062 12.8625 10.125 12.9187 8.76559C12.9656 7.75309 12.8062 7.07809 12.375 6.48746C11.925 5.85934 11.2875 5.62496 10.6406 5.85934ZM11.3062 7.64059C11.5594 8.24996 11.3906 9.74996 11.0719 9.74996C10.9594 9.74996 10.6875 8.88746 10.6875 8.53121C10.6875 8.17496 10.9594 7.31246 11.0719 7.31246C11.1187 7.31246 11.2312 7.46246 11.3062 7.64059Z" fill="black"/>
<path d="M36.4406 5.84996C35.9531 6.02809 35.6719 6.30934 35.3625 6.92809C35.1281 7.40621 35.1094 7.54684 35.1094 8.53121C35.1094 9.52496 35.1281 9.65621 35.3719 10.1437C35.6813 10.7718 36.0469 11.1093 36.5813 11.2593C37.3594 11.4656 38.2406 10.8281 38.5969 9.80621C38.8125 9.16871 38.8125 7.89371 38.5969 7.26559C38.2125 6.14996 37.2938 5.54996 36.4406 5.84996ZM37.2094 7.92184C37.2656 8.14684 37.3125 8.43746 37.3125 8.55934C37.3125 8.89684 37.0406 9.74996 36.9281 9.74996C36.8813 9.74996 36.7688 9.59996 36.6938 9.42184C36.4125 8.74684 36.6375 7.11559 36.975 7.39684C37.05 7.45309 37.1531 7.68746 37.2094 7.92184Z" fill="black"/>
<path d="M6.51562 8.80311C6.30937 8.89686 6.04687 9.07499 5.93437 9.19686C5.65312 9.50624 5.35312 10.2 5.28749 10.7062C5.15624 11.6625 5.69062 12.8812 6.39374 13.2469C7.66874 13.8937 8.99062 12.8062 8.99999 11.1C8.99999 10.2562 8.79374 9.66561 8.34374 9.19686C7.79999 8.63436 7.17187 8.50311 6.51562 8.80311ZM7.49999 10.9781C7.49999 11.4937 7.34062 11.9062 7.15312 11.9062C7.07812 11.9062 6.95624 11.7469 6.88124 11.5594C6.70312 11.1562 6.76874 10.5469 7.01249 10.2844C7.16249 10.1156 7.17187 10.1156 7.33124 10.3125C7.44374 10.4531 7.49999 10.6781 7.49999 10.9781Z" fill="black"/>
<path d="M40.3312 8.72811C39.9093 8.84999 39.3281 9.47811 39.15 10.0031C38.9343 10.6312 38.9625 11.6625 39.1968 12.1875C39.5531 12.9844 40.1343 13.425 40.8375 13.425C41.4093 13.425 41.8968 13.1437 42.2531 12.6281C42.7875 11.8312 42.8718 10.7812 42.4687 9.86249C42.2156 9.29999 41.9531 9.01874 41.4843 8.80311C41.0718 8.61561 40.8 8.59686 40.3312 8.72811ZM41.2031 10.8187C41.2781 11.2687 41.0625 11.9062 40.8468 11.9062C40.5187 11.9062 40.3687 10.725 40.65 10.3312C40.7906 10.125 40.8093 10.125 40.9781 10.275C41.0718 10.3594 41.175 10.6031 41.2031 10.8187Z" fill="black"/>
<path d="M14.8125 11.25C11.7844 11.6718 9.07498 12.9562 7.13435 14.8968C5.2031 16.8375 4.47185 18.525 4.47185 21.0468C4.46248 22.5281 4.55623 23.0437 5.2031 25.0312C5.81248 26.925 7.95935 36.9375 8.25935 39.3281C8.47498 41.0531 8.55935 41.4 8.8781 42.0469C9.61873 43.5094 11.0531 44.6062 12.9187 45.1125C13.8844 45.375 15.7875 45.3937 16.6875 45.15C18.1312 44.7562 19.5 43.8844 20.2312 42.9C21.0469 41.7844 21.3937 40.8937 21.5625 39.4031C21.6937 38.3344 21.5437 37.3312 21 35.6625C20.5219 34.1906 20.3437 33.1687 20.2781 31.5469C20.1844 29.175 20.5594 26.8875 21.4687 24.2718C22.2281 22.0875 22.3875 21.4406 22.4812 20.025C22.7531 15.9187 21.6094 13.1625 19.0969 11.8875C17.9812 11.3343 16.1906 11.0625 14.8125 11.25ZM17.55 12.9C20.1094 13.65 21.2812 16.05 20.9906 19.9312C20.8969 21.1781 20.8219 21.5156 20.3812 22.7906C19.65 24.9 19.4156 25.6875 19.1906 26.7656C18.4875 30.1031 18.6469 33.4687 19.6312 36.3281C20.0719 37.6219 20.1844 38.4562 20.0625 39.4031C19.7531 41.6156 18.5719 43.0125 16.4437 43.65C16.05 43.7719 15.5906 43.8187 14.8125 43.8187C13.8562 43.8187 13.6406 43.7812 12.9375 43.5375C10.9781 42.8531 10.0594 41.7469 9.84373 39.8437C9.64685 38.1187 9.45935 37.1156 8.3531 31.875C7.10623 25.9593 7.06873 25.8 6.60935 24.4781C5.8031 22.1718 5.71873 20.5218 6.2906 18.7593C6.7031 17.5125 8.21248 15.7031 9.64685 14.7187C12.0094 13.1156 15.5344 12.3093 17.55 12.9Z" fill="black"/>
<path d="M30.9844 11.25C29.5125 11.4843 28.3687 12.0281 27.4687 12.9375C26.0719 14.3531 25.4719 16.1531 25.4719 18.9375C25.4812 20.85 25.6031 21.525 26.4375 24C27.4875 27.1406 27.8156 29.0812 27.7219 31.5469C27.6562 33.1687 27.4781 34.1906 27 35.6625C26.4562 37.3312 26.3062 38.3344 26.4375 39.4031C26.5594 40.4812 26.7375 41.1094 27.1406 41.9062C27.9281 43.4719 29.325 44.5781 31.1906 45.1125C32.1937 45.4031 34.0219 45.4031 35.0812 45.1125C36.9094 44.6156 38.3812 43.5094 39.0937 42.0937C39.45 41.4 39.5156 41.0812 39.7406 39.3281C40.0312 37.0406 42.1875 26.925 42.7594 25.1718C43.4062 23.1656 43.5281 22.5656 43.5281 21.1406C43.5375 19.1718 43.1625 17.8687 42.1781 16.4437C41.1562 14.9718 39.4125 13.4812 37.6594 12.5906C35.7 11.6062 32.6437 10.9968 30.9844 11.25ZM33.8437 12.9C36.2156 13.3781 38.25 14.4281 39.8062 15.975C42.1594 18.3187 42.6187 20.6812 41.4375 24.3281C40.8375 26.175 40.9312 25.7812 39.6469 31.8562C38.5406 37.1156 38.3531 38.1187 38.1562 39.8437C37.9406 41.7469 36.9469 42.9281 35.0156 43.5656C34.05 43.8844 32.4375 43.9219 31.5562 43.65C29.4187 43.0031 28.2187 41.5875 27.9281 39.375C27.8156 38.475 27.9469 37.575 28.3687 36.3281C28.9219 34.7344 29.1562 33.3656 29.2125 31.4531C29.2969 28.8562 28.9312 26.5218 28.0594 24.0937C27.2625 21.8812 27.1031 21.2625 27.0094 19.9875C26.7 15.6843 28.1062 13.2281 31.1625 12.7406C31.7625 12.6468 32.925 12.7218 33.8437 12.9Z" fill="black"/>
<path d="M3.42185 12.2156C3.27185 12.2906 2.98123 12.5156 2.79373 12.7312C1.77185 13.8656 2.0531 16.0594 3.30935 16.6969C4.16248 17.1375 5.1281 16.7531 5.62498 15.7875C5.82185 15.4031 5.85935 15.2062 5.85935 14.4844C5.85935 13.725 5.83123 13.5937 5.5781 13.1344C5.41873 12.8437 5.14685 12.5344 4.9406 12.3937C4.51873 12.1125 3.82498 12.0375 3.42185 12.2156ZM4.28435 13.8844C4.51873 14.325 4.3781 15.2437 4.05935 15.3469C3.90935 15.4031 3.65623 14.8875 3.65623 14.5312C3.65623 14.1469 3.90935 13.5656 4.04998 13.6125C4.1156 13.6406 4.2281 13.7531 4.28435 13.8844Z" fill="black"/>
<path d="M43.2281 12.2999C42.4781 12.6749 42.0375 13.6312 42.1219 14.7468C42.2062 15.9468 42.8719 16.7718 43.8094 16.8562C44.7187 16.9312 45.3937 16.3874 45.7125 15.3187C45.9844 14.3999 45.7875 13.3781 45.2062 12.7312C44.6156 12.0749 43.9687 11.9343 43.2281 12.2999ZM44.2125 13.9218C44.2781 14.0999 44.3437 14.3718 44.3437 14.5312C44.3437 14.8874 44.0906 15.4031 43.9406 15.3468C43.4812 15.1968 43.5281 13.5937 43.9875 13.5937C44.0344 13.5937 44.1375 13.7437 44.2125 13.9218Z" fill="black"/>
<line y1="30.5" x2="48" y2="30.5" stroke="#C61F5B" stroke-opacity="0.81"/>
<path d="M42 2.94407C46.4487 5.97865 46.8637 5.69978 47.5775 11.2442" stroke="black"/>
<path d="M47.5417 41C45.0842 45.7917 45.4125 46.1688 40 47.5667" stroke="black"/>
<path d="M0.531997 11.7706C0.84802 6.39474 0.395481 6.18213 4.78432 2.71977" stroke="black"/>
<path d="M6.5295 47.8447C1.85976 45.1627 1.46753 45.4728 0.327864 40" stroke="black"/>
</g>
<defs>
<clipPath id="clip0_1_42">
<rect width="48" height="48" fill="white"/>
</clipPath>
</defs>
</svg>
