<svg width="48" height="48" viewBox="0 0 48 48" fill="none" xmlns="http://www.w3.org/2000/svg">
<path d="M10.4416 9.47532C4.95584 14.6805 0.342856 19.2935 0.187012 19.7299C-0.187014 20.7584 0.436362 22.2545 1.43376 22.7221C1.87013 22.9091 3.02338 23.0649 4.05195 23.0649H5.89091L5.98441 30.0156C6.07792 37.7143 6.17143 38.0571 8.1974 39.2727C9.13247 39.8338 9.81818 39.8961 17.174 39.8961C25.5273 39.8961 25.8701 39.8338 25.8701 38.4935C25.8701 37.1532 25.4961 37.0909 17.6104 37.0909C10.6909 37.0909 10.0364 37.0286 9.56883 36.5299C9.1013 36.0312 9.03896 35.0026 9.03896 28.4571C9.03896 19.7299 9.16364 20.0416 5.95325 19.8857L3.95844 19.7922L12.3117 11.8442C16.8935 7.48052 20.7896 3.83376 20.9455 3.77143C21.1013 3.70909 22.6909 5.08052 24.4364 6.82597C27.6779 10.0052 28.6442 10.5039 29.5481 9.6C29.7662 9.38182 29.9221 8.35324 29.9221 7.10649V4.98701H31.4805H33.039V10.0364V15.0857L34.8468 16.7377C36.7169 18.4831 37.3714 18.7013 38.1507 17.8909C38.9299 17.1429 38.7429 16.426 37.4338 15.148L36.2182 13.9325L36.0935 8.38441C36.0312 4.36363 35.8753 2.71168 35.5948 2.43117C35.1584 1.9948 27.9896 1.83896 27.5532 2.27532C27.4286 2.4 27.2416 3.08571 27.1481 3.77143L26.961 5.08052L24.2494 2.52467C22.7221 1.15324 21.2571 -3.8147e-06 20.9766 -3.8147e-06C20.6649 -3.8147e-06 15.9273 4.27013 10.4416 9.47532Z" fill="black"/>
<path d="M33.7558 23.0649C27.2416 26.3688 26.2753 33.5377 31.3247 41.1117C33.3195 44.1662 37.0597 48 37.9948 48C38.4623 48 39.3351 47.3455 40.5818 46.0987C44.1039 42.4831 46.4727 38.7429 47.5325 35.0649C48.8727 30.4519 46.8468 25.4961 42.6701 23.2208C41.2675 22.4727 40.5507 22.2857 38.3377 22.1922C35.8753 22.0987 35.5636 22.1299 33.7558 23.0649ZM39.7403 25.2779C40.4883 25.4649 41.7039 26.1195 42.4208 26.7429C46.5351 30.2649 45.4753 36.2182 39.6468 42.7013L38.0883 44.4156L37.0909 43.4805C34.4104 40.9558 31.7299 36.4987 31.2312 33.7247C30.5766 30.0779 32.4468 26.587 35.6571 25.4338C37.2468 24.8727 37.9948 24.8416 39.7403 25.2779Z" fill="black"/>
<path d="M35.813 28.7688C34.5662 29.6104 33.7558 31.5429 34.0987 32.8831C34.2234 33.3506 34.7844 34.2234 35.3766 34.8156C36.2805 35.7195 36.5922 35.8442 38.026 35.8442C39.4597 35.8442 39.7714 35.7195 40.6753 34.8156C44.1039 31.387 39.8338 26.0571 35.813 28.7688ZM38.8675 31.6675C39.1169 32.3221 38.2753 33.1013 37.6208 32.8519C37.0909 32.6649 36.9039 31.761 37.3091 31.387C37.6831 30.9818 38.6805 31.1688 38.8675 31.6675Z" fill="black"/>
</svg>
